<svg width="60" height="60" viewBox="0 0 60 60" fill="none" xmlns="http://www.w3.org/2000/svg">
<g filter="url(#filter0_d)">
<circle cx="30" cy="28" r="20" fill="white"/>
</g>
<path d="M29.2997 20.0525C30.3583 19.9268 31.3802 20.0315 32.3247 20.3164C35.4638 21.2631 37.7722 24.233 37.8129 27.7559H39.8649C39.9789 27.7559 40.04 27.9025 39.9708 27.9988L36.8684 32.3427C36.8155 32.4139 36.7096 32.4139 36.6607 32.3427L33.5584 28.003C33.4892 27.9025 33.5502 27.7601 33.6642 27.7601H35.7121C35.6755 25.4436 34.2871 23.4664 32.3247 22.6161C31.5838 22.2935 30.7654 22.1302 29.9064 22.1762C28.7257 22.2391 27.6386 22.6957 26.7592 23.4162C26.291 23.8015 25.607 23.7094 25.2528 23.2109C24.9149 22.7376 25.0085 22.0757 25.4564 21.7113C26.5393 20.819 27.8585 20.2242 29.2997 20.0525ZM33.2408 32.594C32.3655 33.3187 31.2743 33.7753 30.0936 33.834C29.2305 33.88 28.4122 33.7125 27.6753 33.3941C25.7129 32.5438 24.3204 30.5666 24.2879 28.2502H26.3358C26.4498 28.2502 26.5108 28.1035 26.4416 28.0072L23.3393 23.6633C23.2863 23.5921 23.1805 23.5921 23.1316 23.6633L20.0292 28.003C19.96 28.1035 20.0211 28.246 20.1351 28.246H22.1871C22.2237 31.7688 24.5322 34.7429 27.6753 35.6854C28.6198 35.9703 29.6417 36.0708 30.7003 35.9493C32.1415 35.7818 33.4607 35.187 34.5436 34.2947C34.9915 33.9261 35.0851 33.2685 34.7472 32.7951C34.393 32.3008 33.709 32.2087 33.2408 32.594Z" fill="#0029FF"/>
<defs>
<filter id="filter0_d" x="0" y="0" width="60" height="60" filterUnits="userSpaceOnUse" color-interpolation-filters="sRGB">
<feFlood flood-opacity="0" result="BackgroundImageFix"/>
<feColorMatrix in="SourceAlpha" type="matrix" values="0 0 0 0 0 0 0 0 0 0 0 0 0 0 0 0 0 0 127 0"/>
<feOffset dy="2"/>
<feGaussianBlur stdDeviation="5"/>
<feColorMatrix type="matrix" values="0 0 0 0 0 0 0 0 0 0 0 0 0 0 0 0 0 0 0.05 0"/>
<feBlend mode="normal" in2="BackgroundImageFix" result="effect1_dropShadow"/>
<feBlend mode="normal" in="SourceGraphic" in2="effect1_dropShadow" result="shape"/>
</filter>
</defs>
</svg>
