<svg width="20" height="20" viewBox="0 0 20 20" fill="none" xmlns="http://www.w3.org/2000/svg">
<path fill-rule="evenodd" clip-rule="evenodd" d="M8.48499 1.8182C4.80299 1.8182 1.81799 4.803 1.81799 8.4849C1.81799 12.1667 4.80299 15.1515 8.48499 15.1515C10.294 15.1515 11.935 14.4307 13.136 13.2606C13.155 13.2382 13.175 13.2165 13.195 13.1956C13.216 13.1746 13.238 13.1549 13.261 13.1364C14.431 11.9352 15.152 10.2942 15.152 8.4849C15.152 4.803 12.167 1.8182 8.48499 1.8182ZM15.093 13.8074C16.267 12.3518 16.97 10.5004 16.97 8.4849C16.97 3.7988 13.171 0 8.48499 0C3.79899 0 0 3.7988 0 8.4849C0 13.1709 3.79899 16.9697 8.48499 16.9697C10.5 16.9697 12.352 16.2669 13.807 15.0931L18.448 19.7337C18.803 20.0888 19.379 20.0888 19.734 19.7337C20.089 19.3787 20.089 18.8031 19.734 18.4481L15.093 13.8074Z" fill="#DCDCDC"/>
</svg>
